<svg xmlns="http://www.w3.org/2000/svg" xmlns:xlink="http://www.w3.org/1999/xlink" viewBox="0 0 470.86 160.3"><defs><style>.cls-1{fill:#14293f;}.cls-2{fill:url(#Dégradé_sans_nom_5);}.cls-3{fill:url(#Dégradé_sans_nom_5-2);}</style><linearGradient id="Dégradé_sans_nom_5" x1="348.21" y1="148.3" x2="455.34" y2="41.18" gradientUnits="userSpaceOnUse"><stop offset="0" stop-color="#27a346"/><stop offset="1" stop-color="#2ebf4e"/></linearGradient><linearGradient id="Dégradé_sans_nom_5-2" x1="287.7" y1="107.93" x2="360.92" y2="34.71" xlink:href="#Dégradé_sans_nom_5"/></defs><g id="Calque_2" data-name="Calque 2"><g id="Calque_1-2" data-name="Calque 1"><path class="cls-1" d="M49,95.17c2.58-8.65,5-16.65,7.35-24.64Q62.17,51.16,68,31.81c1-3.5,2.4-4.54,6.12-4.56,7.08,0,14.17,0,21.25,0,3.82,0,5.15,1.07,6.25,4.7q9.44,31,18.88,61.92c.08.24.19.47.47,1.14.63-2,1.17-3.62,1.67-5.26q9-29.61,18-59.24c.7-2.34,2-3.36,4.43-3.34,7.34,0,14.68,0,22,0,2.83,0,3.52,1,2.62,3.7Q153,81,136.28,131.14c-.87,2.63-2.52,3.92-5.28,3.91-6.83,0-13.65,0-20.48,0-3.34,0-4.49-1-5.57-4.53Q95.16,98.44,85.4,66.36c-.09-.31-.18-.62-.48-1.61-.81,2.57-1.44,4.54-2,6.52L64.81,130.8c-1,3.21-2.17,4.19-5.52,4.22q-10,.09-20,0c-3.27,0-4.73-1-5.65-3.79Q17.11,81.51.59,31.72C-.65,28-.08,27.26,3.74,27.26q10.11,0,20.23,0c3.79,0,4.53.65,5.61,4.2C36,52.49,42.38,73.52,49,95.17Z"/><path class="cls-2" d="M384.83,125.6v28.58c0,1.2,0,2.4-.05,3.59a2.41,2.41,0,0,1-2.64,2.51c-6.91,0-13.83,0-20.74,0-2.25,0-2.51-1.55-2.5-3.35,0-13.23,0-26.46,0-39.7s-.41-26.66.24-39.94c.95-19.61,9.76-34.91,27.08-44.76a54.85,54.85,0,0,1,25.45-6.86c13.59-.5,26.41,2,37.51,10.24A50.64,50.64,0,0,1,469.6,68.63c3.08,17.36.78,33.72-10,48.15-9.64,13-22.89,19.56-39,20.49-13.17.77-25-2.56-35-11.52C385.58,125.66,385.37,125.69,384.83,125.6Zm0-43.74c.06,18,12,30.17,29.66,30.13s30.16-12.93,30.09-31.4c-.07-17-12.88-29.45-30.32-29.4C397.2,51.24,384.79,64.19,384.84,81.86Z"/><path class="cls-1" d="M280.31,81.88c0,31.86-24.14,55.71-56.39,55.71-32.83,0-57.11-23.61-57.1-55.53,0-32.92,24.13-56.84,57.3-56.82C256.18,25.26,280.31,49.59,280.31,81.88Zm-27.52-.33C252.85,59.75,233,45.7,213,53.43c-12.29,4.76-19.81,17.64-18.28,31.78,1.28,11.92,6.94,21,18.64,24.93C233.68,117,252.73,103,252.79,81.55Z"/><path class="cls-3" d="M299.51,80.53c0-8.7-.05-17.41,0-26.11,0-2-.54-2.73-2.61-2.66-4.17.13-8.36,0-12.54,0-2.09,0-2.94-.79-2.92-2.86.07-6.23.1-12.46,0-18.69,0-2.09.83-2.91,2.92-2.87,4.18.09,8.37-.13,12.54.08,2.49.12,3-.86,3-3.1-.13-4.87.06-9.73,0-14.6-.06-2.54.86-3.93,3.41-4.52,6.9-1.58,13.75-3.35,20.64-5,2.57-.61,3.05-.2,3.06,2.44,0,7.17.15,14.34,0,21.51-.06,2.66.84,3.33,3.37,3.26,5.63-.17,11.27,0,16.9-.05,2.4,0,3.36.93,3.32,3.36-.1,5.89-.08,11.78,0,17.67,0,2.43-.95,3.35-3.35,3.32-5.89-.08-11.78.05-17.67,0-2,0-2.64.57-2.63,2.63.08,15,0,30,0,45.06a21,21,0,0,0,.51,4.81c1.16,4.83,4.55,7.55,9.54,7.69,3.16.1,6.32,0,9.48,0,2.61,0,3.44.82,3.33,3.33-.25,6-.59,11.93-.8,17.9-.07,2.07-1,3.27-3,3.42-7.83.6-15.69,1.24-23.45-.51-12.56-2.83-21-11.83-22.42-25.12-.93-8.62-.57-17.37-.78-26.06,0-1.45,0-2.91,0-4.36Z"/></g></g></svg>